<svg width="64" height="44" viewBox="0 0 64 44" fill="none" xmlns="http://www.w3.org/2000/svg">
<path d="M64 11C64 4.925 60.627 0 54 0H10C7.094 0 4.814 0.947 3.17 2.523L64 21.94V11Z" fill="#12AD2B"/>
<path d="M3.17999 41.487C4.82299 43.057 7.09999 44 9.99999 44H54C60.627 44 64 39.075 64 33V22.13L3.17999 41.487Z" fill="#4189DD"/>
<path d="M64 21.94L3.17 2.52301C1.064 4.54101 0 7.58901 0 11V33C0 36.417 1.066 39.47 3.18 41.487L64 22.13V21.94Z" fill="#EC1C24"/>
<path fill-rule="evenodd" clip-rule="evenodd" d="M16.709 17.28C16.834 16.892 17 16.525 17.302 16.232C17.641 15.91 18.039 15.826 18.538 15.906C18.031 16.18 17.967 16.672 17.807 17.11C17.772 17.202 17.807 17.21 17.889 17.194C18.179 17.131 18.427 17.004 18.596 16.743C18.669 16.633 18.74 16.515 18.818 16.397C19.037 16.655 19.067 17.06 18.899 17.395C18.732 17.734 18.453 17.968 18.153 18.18C18.028 18.268 17.899 18.348 17.782 18.448C18.244 18.483 18.652 18.382 18.985 17.991C19.046 18.304 19.003 18.563 18.815 18.783C18.443 19.227 17.944 19.341 17.396 19.307C17.1 19.291 16.825 19.182 16.538 19.126C16.287 19.077 16.115 19.155 16.04 19.393C15.823 20.074 15.697 20.771 15.716 21.491C15.927 20.808 16.079 20.101 16.544 19.523C16.5 19.873 16.473 20.219 16.49 20.568C16.5 20.743 16.534 20.912 16.56 21.083C16.585 21.223 16.631 21.249 16.754 21.169C17.347 20.78 17.727 20.257 17.84 19.519C18.098 19.688 18.257 19.903 18.292 20.196C18.329 20.537 18.208 20.83 18.035 21.112C17.842 21.435 17.58 21.695 17.288 21.928C17.716 22.193 18.548 21.998 19.112 21.516C19.226 21.827 19.042 22.347 18.728 22.587C18.472 22.783 18.172 22.859 17.857 22.879C17.5101 22.9036 17.1614 22.8732 16.824 22.789C16.685 22.7539 16.54 22.7491 16.399 22.775C15.944 22.857 15.675 23.205 15.83 23.631C16.102 24.392 16.183 25.193 16.352 25.972C16.381 26.105 16.401 26.242 16.481 26.374C16.572 25.974 16.654 25.592 16.746 25.209C16.843 24.802 17.008 24.428 17.279 24.105C17.3683 23.9915 17.4826 23.9001 17.613 23.838C17.796 23.76 17.929 23.829 17.974 24.023C18.013 24.21 17.962 24.379 17.906 24.551C17.872 24.656 17.828 24.759 17.773 24.899C18.31 24.59 18.634 24.138 18.929 23.624C19.07 23.949 19.075 24.249 18.986 24.555C18.894 24.872 18.704 25.131 18.497 25.382C18.343 25.57 18.184 25.754 18.018 25.949C18.371 25.98 18.713 25.668 19 25.054C19.176 25.487 19.196 25.899 18.945 26.281C18.571 26.85 18.017 27.142 17.342 27.148C17.042 27.152 16.87 27.279 16.745 27.516C16.498 27.988 16.413 28.498 16.413 29.022C16.413 29.308 16.42 29.314 16.682 29.199C17.564 28.818 18.472 28.534 19.417 28.355C19.956 28.251 20.329 27.929 20.541 27.424C20.602 27.273 20.661 27.124 20.704 26.969C20.807 26.59 21.005 26.27 21.271 25.988C21.565 25.675 21.883 25.382 22.155 24.991C22.237 25.378 22.157 25.711 22.092 26.051C22.158 26.067 22.18 26.016 22.208 25.985C22.516 25.637 22.706 25.238 22.69 24.764C22.679 24.415 22.734 24.104 22.957 23.809C23.172 23.53 23.103 23.179 23.043 22.854C23.004 22.642 22.922 22.443 22.842 22.243C22.628 21.714 22.706 21.214 23.016 20.744C23.0449 20.6981 23.081 20.6572 23.123 20.623C23.199 20.561 23.282 20.453 23.377 20.492C23.448 20.523 23.383 20.645 23.379 20.725C23.362 21.484 23.552 22.178 24.012 22.791C24.058 22.855 24.112 22.963 24.196 22.932C24.259 22.911 24.235 22.791 24.239 22.717C24.269 22.2 24.178 21.707 23.917 21.266C23.4855 20.5367 23.2569 19.7053 23.255 18.858C23.253 18.731 23.202 18.655 23.105 18.577C22.602 18.191 22.181 17.727 21.888 17.16C21.655 16.705 21.543 16.233 21.705 15.723C21.746 15.589 21.791 15.552 21.918 15.651C22.185 15.848 22.375 16.106 22.523 16.395C22.609 16.565 22.687 16.74 22.799 16.899C22.918 17.061 23.075 17.16 23.283 17.154C23.371 17.154 23.391 17.125 23.344 17.047C22.99 16.455 22.645 15.864 22.199 15.334C22.095 15.213 21.97 15.223 21.84 15.262C21.534 15.348 21.238 15.449 20.916 15.473C20.189 15.525 19.614 15.248 19.139 14.667C19.666 14.741 20.164 14.819 20.71 14.686C20.3827 14.4889 20.0237 14.3502 19.649 14.276C19.1934 14.1672 18.7199 14.1566 18.26 14.245C17.443 14.412 16.816 14.09 16.26 13.536C16.192 13.471 16.132 13.395 16.064 13.319C16.166 13.288 16.225 13.351 16.293 13.374C16.492 13.446 16.688 13.521 16.902 13.518C16.957 13.518 17.023 13.514 17.047 13.471C17.076 13.411 17.014 13.37 16.978 13.337C16.887 13.259 16.79 13.184 16.7 13.11C16.608 13.034 16.513 12.961 16.467 12.82C16.693 12.855 16.904 12.913 17.122 12.892C17.41 12.867 17.67 12.771 17.933 12.673C18.321 12.529 18.661 12.599 18.974 12.851C19.202 13.038 19.412 13.245 19.626 13.442C19.777 13.588 19.932 13.724 20.118 13.83C20.189 13.87 20.26 13.924 20.4 13.898C19.519 13.267 18.989 12.46 18.948 11.385C18.966 11.37 18.987 11.383 19.005 11.397C20.102 12.12 21.069 12.97 21.754 14.108C21.876 14.305 22.011 14.472 22.194 14.613C22.715 15.016 23.087 15.538 23.357 16.138C23.374 16.182 23.398 16.222 23.421 16.27C23.564 15.779 23.249 14.417 22.817 13.667C23.147 13.667 23.394 13.817 23.599 14.044C23.795 14.266 23.928 14.527 24.036 14.804C24.307 15.512 24.413 16.256 24.495 17.007C24.527 17.308 24.549 17.61 24.575 17.939C24.698 17.854 24.719 17.742 24.744 17.638C24.86 17.131 24.876 16.618 24.834 16.104C24.821 15.937 24.794 15.773 24.77 15.594C24.836 15.621 24.871 15.674 24.908 15.724C25.575 16.554 25.761 17.52 25.696 18.555C25.628 19.615 25.324 20.619 24.98 21.616C24.959 21.683 24.916 21.743 24.937 21.863C25.508 21.325 25.743 20.679 25.773 19.9C26.007 20.139 26.16 20.385 26.254 20.669C26.398 21.121 26.36 21.567 26.226 22.014C26.011 22.739 25.612 23.369 25.201 23.994C24.906 24.443 24.6 24.887 24.311 25.348C24.822 25.063 25.244 24.671 25.627 24.237C26.013 23.802 26.326 23.32 26.543 22.773C26.658 23.202 26.609 23.615 26.476 24.022C26.277 24.652 25.908 25.176 25.466 25.656C24.679 26.508 23.752 27.181 22.735 27.726C22.683 27.751 22.619 27.761 22.58 27.837C22.802 27.906 23.02 27.88 23.238 27.854C23.521 27.819 23.806 27.761 24.094 27.824C24.289 27.87 24.295 27.889 24.155 28.038C23.857 28.349 23.494 28.565 23.116 28.763C21.86 29.407 20.519 29.784 19.134 30.023C18.41 30.1523 17.6797 30.228 16.943 30.25C16.904 30.25 16.857 30.234 16.82 30.289C16.8927 30.3203 16.9617 30.3516 17.027 30.383C17.494 30.614 17.806 30.967 17.918 31.487C17.945 31.608 17.914 31.657 17.781 31.657C16.6153 31.6583 15.4496 31.6646 14.284 31.676C14.092 31.68 14.111 31.577 14.136 31.462C14.253 30.926 14.602 30.592 15.085 30.37C15.18 30.325 15.362 30.349 15.321 30.165C15.284 29.997 15.123 30.073 15.021 30.066C13.826 29.993 12.635 29.89 11.495 29.486C10.861 29.262 10.288 28.936 9.84899 28.416C9.75599 28.307 9.62799 28.251 9.50699 28.187C8.92899 27.865 8.29899 27.68 7.65799 27.522C7.60099 27.506 7.54099 27.506 7.48499 27.448C7.72599 27.192 8.02999 27.148 8.35199 27.174C8.79999 27.209 9.21299 27.364 9.62099 27.537C9.77299 27.602 9.92699 27.669 10.122 27.755C10.0328 27.6243 9.91387 27.5167 9.77499 27.441C9.31599 27.161 8.84899 26.892 8.39099 26.611C7.65799 26.158 7.00599 25.611 6.55399 24.858C6.23066 24.3119 6.04403 23.6957 6.00999 23.062C6.09899 23.092 6.12099 23.163 6.16199 23.215C6.74799 24.008 7.39399 24.737 8.20799 25.311C8.30899 25.384 8.41899 25.445 8.52599 25.508C8.56699 25.525 8.57899 25.508 8.56499 25.47C8.00999 24.747 7.46299 24.026 7.03499 23.22C6.66799 22.523 6.38799 21.807 6.41399 21.003C6.42699 20.616 6.51799 20.251 6.72699 19.875C6.85999 20.54 7.15399 21.105 7.44899 21.674C7.39599 21.38 7.33899 21.089 7.29099 20.792C7.09199 19.492 6.99399 18.192 7.20299 16.887C7.25199 16.581 7.32599 16.288 7.49499 16.028C7.52599 15.971 7.55999 15.9 7.61999 15.9C7.68399 15.9 7.69699 15.982 7.71799 16.035C7.95299 16.556 8.02599 17.114 8.06099 17.676C8.08499 18.098 8.10399 18.523 8.07999 18.951C8.17899 18.783 8.19599 18.594 8.20399 18.411C8.23499 17.783 8.24799 17.155 8.27799 16.529C8.31099 15.792 8.38199 15.061 8.67399 14.375C8.85799 13.946 9.12599 13.586 9.53999 13.354C9.59333 13.3246 9.64699 13.2976 9.70099 13.273C9.73399 13.259 9.76899 13.252 9.83699 13.228C9.57599 14.174 9.47899 15.132 9.24399 16.071L9.35399 15.885C9.59299 15.489 9.87099 15.123 10.278 14.885C10.351 14.842 10.376 14.765 10.417 14.701C11.008 13.711 11.734 12.839 12.64 12.124C12.873 11.943 13.118 11.785 13.411 11.715C13.5267 11.6793 13.6517 11.6897 13.76 11.744C13.433 12.234 13.028 12.648 12.621 13.057C12.605 13.0943 12.6173 13.107 12.658 13.095C13.423 12.626 14.223 12.247 15.096 12.028C15.568 11.911 16.045 11.837 16.534 11.938C16.683 11.972 16.907 12.003 16.929 12.134C16.95 12.249 16.73 12.315 16.6 12.384C16.151 12.631 15.653 12.74 15.164 12.874C14.743 12.988 14.318 13.089 13.915 13.257C13.849 13.286 13.786 13.318 13.679 13.366C14.066 13.495 14.426 13.495 14.782 13.477C15.148 13.457 15.506 13.388 15.888 13.247C15.7727 13.5094 15.5673 13.7219 15.309 13.846C14.968 14.016 14.597 14.04 14.227 14.047C13.887 14.053 13.544 14.032 13.205 14.092C12.955 14.137 12.726 14.23 12.55 14.475C13.027 14.577 13.472 14.534 13.938 14.398C13.864 14.59 13.723 14.687 13.571 14.765C13.2961 14.899 12.9937 14.9668 12.688 14.963C12.201 14.969 11.719 15.023 11.255 15.179C10.313 15.5 9.59599 16.339 9.39199 17.396C9.47599 17.298 9.52999 17.244 9.57899 17.184C9.83999 16.85 10.096 16.513 10.362 16.184C10.448 16.078 10.55 15.982 10.651 15.89C10.791 15.767 10.805 15.773 10.871 15.954C10.953 16.18 10.94 16.401 10.873 16.624C10.7424 17.0903 10.4387 17.4891 10.024 17.739C9.47399 18.0736 9.05599 18.5296 8.76999 19.107C8.6505 19.3281 8.59509 19.5781 8.60999 19.829C8.92699 19.544 9.04999 19.165 9.24499 18.829C9.35099 19.071 9.34599 19.314 9.30299 19.557C9.25899 19.8203 9.17133 20.067 9.03999 20.297C8.75699 20.806 8.65499 21.359 8.60299 21.929C8.58399 22.155 8.55099 22.379 8.54699 22.608C8.88799 21.984 8.96099 21.273 9.16499 20.608C9.26999 21.302 9.52299 21.958 9.66999 22.637C9.72552 22.9158 9.69483 23.205 9.58199 23.466C9.56599 23.504 9.55699 23.543 9.53099 23.58C9.17299 24.143 9.21899 24.724 9.47799 25.309C9.51399 25.389 9.54299 25.475 9.60099 25.562C9.60699 25.395 9.62199 25.228 9.62199 25.062C9.62565 24.8888 9.62031 24.7156 9.60599 24.543C9.59399 24.372 9.56299 24.206 9.53399 23.983C10.101 24.61 10.34 25.348 10.651 26.088C10.772 25.829 10.672 25.567 10.811 25.327C10.949 25.71 11.092 26.07 11.279 26.409C11.71 27.201 12.244 27.906 12.993 28.419C13.406 28.702 13.852 28.895 14.354 28.928C14.635 28.947 14.897 29.018 15.143 29.151C15.297 29.233 15.472 29.28 15.646 29.328C15.764 29.356 15.78 29.313 15.772 29.214C15.7327 28.558 15.694 27.9016 15.656 27.245C15.626 26.744 15.591 26.245 15.568 25.742C15.56 25.605 15.551 25.566 15.4 25.631C14.8452 25.8679 14.2263 25.9091 13.645 25.748C12.968 25.566 12.53 25.047 12.441 24.34C12.426 24.217 12.396 24.091 12.424 23.919C12.906 24.392 13.411 24.789 14.138 24.789C13.36 24.282 12.546 23.833 12.445 22.794C12.919 23.073 13.351 23.412 13.921 23.619C13.73 23.351 13.557 23.138 13.424 22.899C13.307 22.685 13.2 22.462 13.197 22.209C13.189 22.011 13.222 21.989 13.392 22.087C13.868 22.354 14.255 22.726 14.617 23.124C14.8 23.328 14.968 23.549 15.143 23.76C15.201 23.727 15.173 23.674 15.171 23.633C15.147 22.621 15.116 21.613 15.096 20.603C15.094 20.461 15.053 20.441 14.932 20.488C14.8073 20.5306 14.6791 20.5623 14.549 20.583C14.031 20.669 13.61 20.478 13.347 20.027C13.093 19.594 13.013 19.114 12.972 18.621C13.048 18.608 13.058 18.67 13.08 18.703C13.194 18.857 13.302 19.016 13.445 19.145C13.5085 19.2094 13.5946 19.2466 13.685 19.249C13.818 19.247 13.855 19.171 13.781 19.06C13.316 18.343 13.257 17.552 13.361 16.732L13.387 16.676C13.586 17.289 13.902 17.81 14.371 18.231C14.426 18.249 14.429 18.214 14.422 18.177C14.31 17.947 14.179 17.722 14.144 17.461C14.127 17.33 14.118 17.189 14.248 17.107C14.381 17.027 14.509 17.105 14.605 17.189C15.092 17.591 15.326 18.116 15.34 18.74L15.346 19.114L15.359 19.127C16.014 18.56 16.287 17.436 15.969 16.63C15.924 16.524 15.864 16.529 15.776 16.535C15.148 16.593 14.713 16.296 14.406 15.775C14.393 15.75 14.373 15.723 14.395 15.679C14.633 15.732 14.866 15.829 15.117 15.839C15.432 15.855 15.638 15.714 15.73 15.404C15.652 15.377 15.594 15.431 15.531 15.454C15.016 15.629 14.555 15.553 14.149 15.18C14.004 15.05 14.006 15.038 14.18 14.933C14.529 14.732 14.899 14.745 15.273 14.839C15.468 14.89 15.654 14.974 15.835 15.068C15.874 15.003 15.849 14.952 15.833 14.904C15.743 14.599 15.757 14.291 15.778 13.977C15.786 13.866 15.821 13.84 15.934 13.874C16.511 14.044 16.832 14.551 16.733 15.144C16.7069 15.3646 16.6215 15.574 16.486 15.75C16.379 15.883 16.369 16.017 16.402 16.169L16.64 17.288C16.662 17.3193 16.6847 17.32 16.708 17.29" fill="#F9CB38"/>
<path fill-rule="evenodd" clip-rule="evenodd" d="M14.423 18.17C14.4485 18.1935 14.4678 18.223 14.4792 18.2558C14.4905 18.2886 14.4935 18.3237 14.488 18.358L14.372 18.223C14.391 18.203 14.403 18.189 14.423 18.17ZM12.658 13.09C12.6167 13.1358 12.5644 13.1702 12.506 13.19C12.521 13.108 12.572 13.083 12.621 13.052C12.635 13.063 12.6474 13.0757 12.658 13.09ZM16.709 17.28C16.711 17.311 16.705 17.35 16.669 17.35C16.631 17.345 16.64 17.309 16.642 17.28H16.709ZM8.566 25.464C8.592 25.482 8.634 25.508 8.607 25.538C8.582 25.565 8.546 25.53 8.527 25.502C8.54167 25.4912 8.55479 25.4784 8.566 25.464ZM7.523 21.875L7.505 21.891C7.49827 21.8866 7.4925 21.8808 7.48803 21.8741C7.48356 21.8674 7.48049 21.8599 7.479 21.852C7.479 21.852 7.491 21.84 7.501 21.836C7.508 21.848 7.518 21.861 7.523 21.875Z" fill="#F9CB38"/>
</svg>
