<svg width="1024" height="1024" viewBox="0 0 1024 1024" fill="none" xmlns="http://www.w3.org/2000/svg">
<circle cx="512" cy="512" r="512" fill="#D2273C"/>
<path d="M309.043 1024V296.727H805.491V439.483H484.824V588.631H773.886V731.741H484.824V1024H309.043Z" fill="white"/>
<path d="M495.064 269.139C496.353 268.835 497.492 267.926 498.235 266.609C498.978 265.292 499.266 263.672 499.036 262.099C498.99 261.771 498.923 261.448 498.834 261.134L527.414 227.888L518.936 224.422L492.332 257.521C491.32 258.085 490.49 259.041 489.97 260.24C489.451 261.438 489.272 262.812 489.461 264.147C489.555 264.925 489.776 265.672 490.109 266.346C490.443 267.019 490.883 267.605 491.405 268.07C491.926 268.534 492.518 268.868 493.146 269.051C493.774 269.235 494.426 269.264 495.064 269.139Z" fill="#9E616A"/>
<path d="M546.338 192.477C546.338 192.477 552.373 194.106 551.584 202.932C550.795 211.757 534.283 230.076 531.692 233.128C529.102 236.181 511.679 246.181 511.679 246.181L505.02 237.256L546.338 192.477Z" fill="#08796C"/>
<path d="M485.404 358.281L479.259 356.338L481.773 322.734L490.843 325.603L485.404 358.281Z" fill="#9E616A"/>
<path d="M480.619 341.952C480.596 341.886 478.318 335.29 479.813 329.128C479.94 328.533 480.025 327.925 480.067 327.312C480.118 326.589 480.222 325.872 480.377 325.171C480.548 324.541 480.764 323.929 481.021 323.343C481.287 322.736 481.51 322.104 481.687 321.451C485.284 306.807 490.303 286.906 493.786 275.257C497.697 262.176 540.034 265.76 542.506 265.981L550.006 259.476L552.806 282.486L526.142 292.798L526.121 292.806L504.408 292.751L503.638 295.557C504.193 296.764 504.353 298.182 504.087 299.526C503.967 300.188 503.735 300.812 503.405 301.358C503.074 301.903 502.653 302.358 502.169 302.692L501.575 303.082L494.306 329.59C494.294 332.25 493.613 334.84 492.353 337.013L492.194 337.28L489.398 344.814L480.653 342.048L480.619 341.952Z" fill="#2F2E41"/>
<path d="M485.37 368.153L462.482 360.913L462.549 360.514C463.028 357.361 464.478 354.55 466.603 352.655C467.583 351.782 468.711 351.185 469.904 350.907C471.096 350.63 472.325 350.678 473.501 351.05L473.501 351.05L478.41 347.999L485.482 354.84L487.48 355.472L485.37 368.153Z" fill="#2F2E41"/>
<path d="M502.215 374.492L495.911 374.492L492.911 340.964L502.216 340.964L502.215 374.492Z" fill="#9E616A"/>
<path d="M537.951 181.469C544.901 181.469 550.535 173.701 550.535 164.12C550.535 154.538 544.901 146.771 537.951 146.771C531.002 146.771 525.368 154.538 525.368 164.12C525.368 173.701 531.002 181.469 537.951 181.469Z" fill="#9E616A"/>
<path d="M493.804 364.078C493.773 364.023 490.635 358.46 490.847 351.841C490.869 351.159 491.213 350.506 491.578 349.816C491.927 349.155 492.288 348.471 492.31 347.811C492.453 343.666 492.609 339.598 492.773 335.72C492.88 333.206 492.341 330.548 491.82 327.977C491.263 325.229 490.687 322.387 490.847 319.597C491.74 304.022 495.73 289.372 497.519 286.907C501.479 281.446 525.715 265.583 526.745 264.911L526.787 264.884L557.818 269.685L557.937 269.704L557.959 269.867C557.979 270.013 559.911 284.582 555.401 293.586C554.563 295.338 553.424 296.85 552.062 298.018C550.701 299.187 549.149 299.985 547.511 300.358C534.226 303.6 515.115 305.956 513.42 306.161L506.95 347.783C507.459 348.98 507.66 350.336 507.527 351.675C507.394 353.013 506.933 354.272 506.203 355.287L505.673 355.994L505.057 359.957L502.781 364.164H493.853L493.804 364.078Z" fill="#2F2E41"/>
<path d="M523.711 267.231L529.557 255.142L526.565 233.728L527.105 203.318L528.183 198.788C529.206 194.516 531.495 190.991 534.463 189.119L541.718 184.54C542.158 184.258 542.647 184.108 543.144 184.099C543.641 184.091 544.133 184.226 544.579 184.493C545.032 184.775 545.435 185.165 545.763 185.639C546.091 186.113 546.339 186.662 546.491 187.254C548.089 187.552 558.3 189.973 560.51 203.238C561.332 208.171 561.802 217.937 561.906 232.265C561.98 242.613 561.511 252.956 560.501 263.231C560.427 263.983 559.904 264.698 559.398 265.389C558.936 266.02 558.459 266.671 558.392 267.265C558.327 267.845 558.638 268.459 558.967 269.109C559.323 269.809 559.69 270.534 559.593 271.299C559.375 273.022 559.246 274.772 559.122 276.464C558.988 278.791 558.743 281.107 558.39 283.4C557.943 285.784 557.39 288.136 556.732 290.446C556.286 292.106 555.826 293.824 555.464 295.501L555.436 295.635L555.336 295.658C555.334 295.659 555.331 295.659 555.329 295.659C555.229 295.659 554.865 290.812 523.711 267.231Z" fill="#08796C"/>
<path d="M505.607 384.124L482.125 384.123V383.714C482.096 380.446 483.048 377.277 484.803 374.803C485.599 373.659 486.588 372.738 487.703 372.101C488.819 371.464 490.033 371.127 491.265 371.113H491.266L495.555 366.626L503.558 371.113L505.608 371.113L505.607 384.124Z" fill="#2F2E41"/>
<path d="M418.705 243.121L419.388 252.416C419.388 252.416 419.684 260.134 420.621 261.84C421.55 263.538 446.924 263.753 446.924 263.753C446.924 263.753 448.601 252.751 450.045 243.121H418.705Z" fill="#FFB6B6"/>
<path d="M493.39 361.33L498.694 360.025L497.176 333.944L489.347 335.868L493.39 361.33Z" fill="#FFB6B6"/>
<path d="M474.792 365.151H480.199L482.772 339.197L474.791 339.198L474.792 365.151Z" fill="#FFB6B6"/>
<path d="M483.447 354.471L472.822 355.673L467.027 303.387C447.923 307.387 429.901 308.668 414.312 303.83C409.034 302.214 405.808 295.58 407.106 289.013C407.167 288.706 407.237 288.402 407.317 288.101C409.182 281.172 416.75 274.519 420.598 266.898L441.913 277.545L442.879 282.353L470.181 278.052C475.672 277.187 480.686 282.025 481.381 288.857C481.418 289.218 481.442 289.58 481.453 289.944L483.447 354.471Z" fill="#2F2E41"/>
<path d="M499.6 343.46L488.975 344.662L469.711 296.702C450.607 300.701 432.585 301.983 416.996 297.145C411.718 295.529 408.492 288.895 409.79 282.327C409.851 282.02 409.921 281.717 410.001 281.416C411.866 274.487 416.75 269.585 420.598 261.964L448.702 262.483L445.563 275.668L472.865 271.367C478.356 270.502 483.37 275.34 484.065 282.172C484.102 282.533 484.126 282.895 484.137 283.259L499.6 343.46Z" fill="#2F2E41"/>
<path d="M431.411 185.206C438.611 185.206 444.448 178.1 444.448 169.336C444.448 160.571 438.611 153.465 431.411 153.465C424.21 153.465 418.373 160.571 418.373 169.336C418.373 178.1 424.21 185.206 431.411 185.206Z" fill="#FFB6B6"/>
<path d="M424.72 188.242L435.184 189.74C435.626 189.804 436.04 190.033 436.369 190.396C436.698 190.759 436.926 191.239 437.021 191.767L438.685 201.036L449.058 215.906C449.058 215.906 452.783 224.408 451.386 234.044C449.99 243.679 449.376 250.839 449.376 250.839C449.376 250.839 421.549 263.539 420.618 261.839C419.687 260.138 419.384 252.415 419.384 252.415L415.659 201.97C415.659 201.97 419.85 193.468 422.178 193.468C423.681 193.406 423.488 189.29 424.72 188.242Z" fill="#08796C"/>
<path opacity="0.2" d="M424.046 221.288L447.441 252.597L451.606 249.477L424.046 221.288Z" fill="black"/>
<path d="M449.659 253.94C451.126 253.94 452.315 252.203 452.315 250.059C452.315 247.916 451.126 246.178 449.659 246.178C448.191 246.178 447.002 247.916 447.002 250.059C447.002 252.203 448.191 253.94 449.659 253.94Z" fill="#6C63FF"/>
<path d="M487.353 280.587C486.578 280.47 485.834 280.146 485.172 279.641C484.51 279.135 483.948 278.459 483.524 277.66C483.101 276.861 482.826 275.959 482.72 275.017C482.614 274.075 482.679 273.116 482.91 272.207L450.168 238.08L459.426 233.923L489.978 267.998C491.206 268.572 492.218 269.674 492.823 271.096C493.427 272.518 493.583 274.16 493.259 275.712C492.936 277.263 492.156 278.617 491.067 279.515C489.979 280.414 488.657 280.795 487.353 280.587Z" fill="#FFB6B6"/>
<path d="M428.03 201.126C428.03 201.126 421.411 203.187 422.585 212.602C423.759 222.016 442.645 240.781 445.614 243.917C448.584 247.052 468.194 256.857 468.194 256.857L475.254 246.948L428.03 201.126Z" fill="#08796C"/>
<path d="M493.362 267.955C492.581 267.974 491.806 267.784 491.091 267.399C490.377 267.014 489.741 266.443 489.227 265.726C488.714 265.01 488.336 264.165 488.12 263.251C487.904 262.337 487.855 261.377 487.977 260.437L451.552 232.379L460.225 226.649L494.476 255.037C495.759 255.391 496.89 256.305 497.656 257.607C498.422 258.908 498.769 260.506 498.632 262.099C498.495 263.691 497.882 265.166 496.911 266.246C495.94 267.325 494.677 267.933 493.362 267.955Z" fill="#FFB6B6"/>
<path d="M425.289 199.673C425.289 199.673 418.981 202.869 421.252 211.981C423.523 221.093 444.425 236.366 447.733 238.951C451.042 241.535 471.604 247.815 471.604 247.815L477.424 236.775L425.289 199.673Z" fill="#08796C"/>
<path d="M437.341 154.164C432.82 150.38 428.839 149.803 425.569 150.877C425.145 150.079 424.551 149.436 423.849 149.018C421.299 141.195 413.537 136.497 406.876 138.781C400.172 141.08 395.547 150.119 396.808 158.457C397.59 163.625 400.262 168.101 401.337 173.19C403.417 183.043 398.342 194.329 390.403 197.506C397.92 199.343 406.194 193.753 408.891 185.017C410.201 180.773 410.28 176.14 410.447 171.611C410.613 167.082 410.913 162.417 412.599 158.375C413.729 155.603 415.606 153.386 417.917 152.095C417.71 152.874 417.658 153.701 417.766 154.51C417.874 155.318 418.138 156.083 418.536 156.743C416.773 159.431 415.814 162.338 415.814 164.079C412.151 172.227 417.389 179.225 424.082 183.683C426.752 185.471 429.835 186.125 432.844 185.543L433.124 184.087L433.503 185.398C433.503 185.398 437.861 202.919 439.299 203.947C438.753 200.829 438.128 186.391 437.825 183.348C437.404 179.206 438.87 173.04 439.927 169.29C440.582 166.979 440.919 164.552 440.922 162.107V162L441.952 166.025L445.699 164.079C445.002 159.211 445.699 153.685 437.341 154.164Z" fill="#2F2E41"/>
<path d="M492.208 279.294C492.979 279.143 493.714 278.788 494.36 278.254C495.006 277.72 495.549 277.02 495.949 276.203C496.349 275.386 496.597 274.473 496.675 273.527C496.754 272.581 496.661 271.625 496.404 270.727L528.13 235.206L518.756 231.452L489.217 266.826C488.007 267.453 487.028 268.598 486.465 270.045C485.902 271.492 485.795 273.14 486.163 274.677C486.532 276.214 487.351 277.532 488.465 278.383C489.579 279.234 490.91 279.558 492.208 279.294Z" fill="#9E616A"/>
<path d="M549.175 197.319C549.175 197.319 555.851 199.093 554.952 208.552C554.054 218.011 535.727 237.581 532.851 240.843C529.974 244.104 510.663 254.75 510.663 254.75L503.317 245.153L549.175 197.319Z" fill="#08796C"/>
<path d="M490.757 354.614L498.844 349.68L500.369 354.009L510.595 356.525C511.101 356.65 511.56 356.967 511.906 357.432C512.253 357.896 512.468 358.483 512.521 359.107C512.574 359.731 512.461 360.359 512.2 360.9C511.939 361.441 511.543 361.866 511.069 362.113L501.188 367.268L497.977 363.876L498.82 368.504L495.094 370.448L490.757 354.614Z" fill="#2F2E41"/>
<path d="M473.381 362.102L482.411 361.446V366.155L490.996 373.373C491.42 373.729 491.739 374.241 491.907 374.834C492.076 375.427 492.083 376.07 491.93 376.669C491.777 377.268 491.47 377.791 491.055 378.163C490.64 378.535 490.138 378.735 489.623 378.735H478.872L477.019 374.077L476.296 378.735H472.242L473.381 362.102Z" fill="#2F2E41"/>
<path d="M555.199 154.73C553.554 152.139 550.206 151.033 548.066 153.017C549.729 151.708 550.256 148.835 549.556 146.58C548.856 144.325 547.156 142.69 545.298 141.858C543.439 141.026 541.421 140.898 539.441 140.907C536.856 140.919 534.207 141.168 531.855 142.472C529.502 143.775 527.478 146.314 527.093 149.425C526.355 149.09 525.563 148.968 524.78 149.07C523.997 149.172 523.244 149.495 522.581 150.012C521.918 150.53 521.363 151.228 520.96 152.052C520.557 152.876 520.317 153.803 520.26 154.76C520.202 155.716 520.329 156.675 520.629 157.562C520.929 158.448 521.394 159.238 521.988 159.867C522.582 160.497 523.289 160.949 524.051 161.189C524.814 161.429 525.612 161.449 526.382 161.248C527.696 160.905 528.84 159.948 530.093 159.357C531.346 158.766 532.914 158.617 533.902 159.726C535.246 161.234 535.018 164.475 536.741 165.218C537.693 165.628 538.749 164.971 539.746 165.167C540.93 165.399 541.761 166.818 541.957 168.258C542.152 169.698 541.851 171.162 541.552 172.576C540.887 175.72 540.222 178.864 539.557 182.008L540.337 181.77C544.291 181.503 548.054 179.611 551.01 176.404C553.967 173.198 555.943 168.865 556.616 164.114C557.072 160.887 556.844 157.321 555.199 154.73Z" fill="#2F2E41"/>
</svg>
